<mxfile host="Electron" agent="Mozilla/5.0 (Windows NT 10.0; Win64; x64) AppleWebKit/537.36 (KHTML, like Gecko) draw.io/26.0.9 Chrome/128.0.6613.186 Electron/32.2.5 Safari/537.36" version="26.0.9">
  <diagram name="Page-1" id="0cGqyL7DG-wcE4ZlD6Sr">
    <mxGraphModel dx="1075" dy="518" grid="1" gridSize="10" guides="1" tooltips="1" connect="1" arrows="1" fold="1" page="1" pageScale="1" pageWidth="1169" pageHeight="827" math="0" shadow="0">
      <root>
        <mxCell id="0" />
        <mxCell id="1" parent="0" />
        <mxCell id="7TDlWVTvPXgTqfUWaNOH-17" value="" style="rounded=0;whiteSpace=wrap;html=1;strokeColor=none;fillColor=#CCFF99;opacity=50;fontStyle=1;fontSize=14;" parent="1" vertex="1">
          <mxGeometry x="690" y="60" width="160" height="280" as="geometry" />
        </mxCell>
        <mxCell id="7TDlWVTvPXgTqfUWaNOH-16" value="" style="rounded=0;whiteSpace=wrap;html=1;strokeColor=none;fillColor=#99FFFF;opacity=50;fontStyle=1;fontSize=14;" parent="1" vertex="1">
          <mxGeometry x="460" y="60" width="230" height="280" as="geometry" />
        </mxCell>
        <mxCell id="7TDlWVTvPXgTqfUWaNOH-13" value="" style="rounded=0;whiteSpace=wrap;html=1;strokeColor=none;fillColor=#FF99FF;opacity=40;fontStyle=1;fontSize=14;" parent="1" vertex="1">
          <mxGeometry x="100" y="60" width="360" height="280" as="geometry" />
        </mxCell>
        <mxCell id="7TDlWVTvPXgTqfUWaNOH-2" value="power supply" style="rounded=0;whiteSpace=wrap;html=1;fillColor=none;fontStyle=1;fontSize=14;" parent="1" vertex="1">
          <mxGeometry x="120" y="80" width="120" height="40" as="geometry" />
        </mxCell>
        <mxCell id="7TDlWVTvPXgTqfUWaNOH-19" value="" style="edgeStyle=orthogonalEdgeStyle;rounded=0;orthogonalLoop=1;jettySize=auto;html=1;" parent="1" source="7TDlWVTvPXgTqfUWaNOH-3" target="7TDlWVTvPXgTqfUWaNOH-4" edge="1">
          <mxGeometry relative="1" as="geometry" />
        </mxCell>
        <mxCell id="7TDlWVTvPXgTqfUWaNOH-3" value="input" style="rounded=0;whiteSpace=wrap;html=1;fillColor=none;fontStyle=1;fontSize=14;" parent="1" vertex="1">
          <mxGeometry x="120" y="160" width="60" height="40" as="geometry" />
        </mxCell>
        <mxCell id="7TDlWVTvPXgTqfUWaNOH-21" value="" style="edgeStyle=orthogonalEdgeStyle;rounded=0;orthogonalLoop=1;jettySize=auto;html=1;" parent="1" source="7TDlWVTvPXgTqfUWaNOH-4" target="7TDlWVTvPXgTqfUWaNOH-5" edge="1">
          <mxGeometry relative="1" as="geometry" />
        </mxCell>
        <mxCell id="7TDlWVTvPXgTqfUWaNOH-4" value="analog frontend (AFE)" style="rounded=0;whiteSpace=wrap;html=1;fillColor=none;fontStyle=1;fontSize=14;" parent="1" vertex="1">
          <mxGeometry x="220" y="160" width="120" height="40" as="geometry" />
        </mxCell>
        <mxCell id="7TDlWVTvPXgTqfUWaNOH-22" value="" style="edgeStyle=orthogonalEdgeStyle;rounded=0;orthogonalLoop=1;jettySize=auto;html=1;" parent="1" source="7TDlWVTvPXgTqfUWaNOH-5" target="7TDlWVTvPXgTqfUWaNOH-7" edge="1">
          <mxGeometry relative="1" as="geometry" />
        </mxCell>
        <mxCell id="7TDlWVTvPXgTqfUWaNOH-5" value="ADC" style="rounded=0;whiteSpace=wrap;html=1;fillColor=none;fontStyle=1;fontSize=14;" parent="1" vertex="1">
          <mxGeometry x="380" y="160" width="60" height="40" as="geometry" />
        </mxCell>
        <mxCell id="7TDlWVTvPXgTqfUWaNOH-6" value="clock and control" style="rounded=0;whiteSpace=wrap;html=1;fillColor=none;fontStyle=1;fontSize=14;" parent="1" vertex="1">
          <mxGeometry x="380" y="280" width="290" height="40" as="geometry" />
        </mxCell>
        <mxCell id="7TDlWVTvPXgTqfUWaNOH-23" value="" style="edgeStyle=orthogonalEdgeStyle;rounded=0;orthogonalLoop=1;jettySize=auto;html=1;" parent="1" source="7TDlWVTvPXgTqfUWaNOH-7" target="7TDlWVTvPXgTqfUWaNOH-8" edge="1">
          <mxGeometry relative="1" as="geometry" />
        </mxCell>
        <mxCell id="7TDlWVTvPXgTqfUWaNOH-29" style="edgeStyle=orthogonalEdgeStyle;rounded=0;orthogonalLoop=1;jettySize=auto;html=1;exitX=0.5;exitY=1;exitDx=0;exitDy=0;entryX=0.5;entryY=0;entryDx=0;entryDy=0;startArrow=classic;startFill=1;endArrow=none;" parent="1" source="7TDlWVTvPXgTqfUWaNOH-7" target="7TDlWVTvPXgTqfUWaNOH-6" edge="1">
          <mxGeometry relative="1" as="geometry" />
        </mxCell>
        <mxCell id="7TDlWVTvPXgTqfUWaNOH-7" value="pre-processing" style="rounded=0;whiteSpace=wrap;html=1;fillColor=none;fontStyle=1;fontSize=14;" parent="1" vertex="1">
          <mxGeometry x="480" y="160" width="90" height="40" as="geometry" />
        </mxCell>
        <mxCell id="7TDlWVTvPXgTqfUWaNOH-24" value="" style="edgeStyle=orthogonalEdgeStyle;rounded=0;orthogonalLoop=1;jettySize=auto;html=1;" parent="1" source="7TDlWVTvPXgTqfUWaNOH-8" target="7TDlWVTvPXgTqfUWaNOH-10" edge="1">
          <mxGeometry relative="1" as="geometry" />
        </mxCell>
        <mxCell id="7TDlWVTvPXgTqfUWaNOH-8" value="storage" style="rounded=0;whiteSpace=wrap;html=1;fillColor=none;fontStyle=1;fontSize=14;" parent="1" vertex="1">
          <mxGeometry x="610" y="160" width="60" height="40" as="geometry" />
        </mxCell>
        <mxCell id="7TDlWVTvPXgTqfUWaNOH-26" value="" style="edgeStyle=orthogonalEdgeStyle;rounded=0;orthogonalLoop=1;jettySize=auto;html=1;" parent="1" source="7TDlWVTvPXgTqfUWaNOH-9" target="7TDlWVTvPXgTqfUWaNOH-6" edge="1">
          <mxGeometry relative="1" as="geometry" />
        </mxCell>
        <mxCell id="7TDlWVTvPXgTqfUWaNOH-9" value="application/&lt;br&gt;visualization" style="rounded=0;whiteSpace=wrap;html=1;fillColor=none;fontStyle=1;fontSize=14;" parent="1" vertex="1">
          <mxGeometry x="710" y="280" width="120" height="40" as="geometry" />
        </mxCell>
        <mxCell id="7TDlWVTvPXgTqfUWaNOH-25" value="" style="edgeStyle=orthogonalEdgeStyle;rounded=0;orthogonalLoop=1;jettySize=auto;html=1;" parent="1" source="7TDlWVTvPXgTqfUWaNOH-10" target="7TDlWVTvPXgTqfUWaNOH-9" edge="1">
          <mxGeometry relative="1" as="geometry" />
        </mxCell>
        <mxCell id="7TDlWVTvPXgTqfUWaNOH-10" value="data&lt;div&gt;processing&lt;/div&gt;" style="rounded=0;whiteSpace=wrap;html=1;fillColor=none;fontStyle=1;fontSize=14;" parent="1" vertex="1">
          <mxGeometry x="710" y="160" width="120" height="40" as="geometry" />
        </mxCell>
        <mxCell id="7TDlWVTvPXgTqfUWaNOH-20" style="edgeStyle=orthogonalEdgeStyle;rounded=0;orthogonalLoop=1;jettySize=auto;html=1;exitX=0;exitY=0.5;exitDx=0;exitDy=0;startArrow=classic;startFill=1;endArrow=none;" parent="1" source="7TDlWVTvPXgTqfUWaNOH-11" edge="1">
          <mxGeometry relative="1" as="geometry">
            <mxPoint x="200" y="180" as="targetPoint" />
          </mxGeometry>
        </mxCell>
        <mxCell id="7TDlWVTvPXgTqfUWaNOH-33" value="" style="edgeStyle=orthogonalEdgeStyle;rounded=0;orthogonalLoop=1;jettySize=auto;html=1;" parent="1" source="7TDlWVTvPXgTqfUWaNOH-11" target="7TDlWVTvPXgTqfUWaNOH-6" edge="1">
          <mxGeometry relative="1" as="geometry" />
        </mxCell>
        <mxCell id="7TDlWVTvPXgTqfUWaNOH-28" style="edgeStyle=orthogonalEdgeStyle;rounded=0;orthogonalLoop=1;jettySize=auto;html=1;exitX=0.5;exitY=1;exitDx=0;exitDy=0;entryX=0.895;entryY=0;entryDx=0;entryDy=0;entryPerimeter=0;startArrow=classic;startFill=1;endArrow=none;" parent="1" source="7TDlWVTvPXgTqfUWaNOH-8" target="7TDlWVTvPXgTqfUWaNOH-6" edge="1">
          <mxGeometry relative="1" as="geometry" />
        </mxCell>
        <mxCell id="7TDlWVTvPXgTqfUWaNOH-31" value="&lt;span style=&quot;font-size: 30px;&quot;&gt;&lt;b&gt;FW&lt;/b&gt;&lt;/span&gt;" style="text;html=1;align=center;verticalAlign=middle;whiteSpace=wrap;rounded=0;fontColor=#009999;" parent="1" vertex="1">
          <mxGeometry x="540" y="80" width="70" height="40" as="geometry" />
        </mxCell>
        <mxCell id="7TDlWVTvPXgTqfUWaNOH-30" value="&lt;b&gt;&lt;font style=&quot;font-size: 30px;&quot;&gt;HW&lt;/font&gt;&lt;/b&gt;" style="text;html=1;align=center;verticalAlign=middle;whiteSpace=wrap;rounded=0;fontColor=#990099;" parent="1" vertex="1">
          <mxGeometry x="320" y="80" width="70" height="40" as="geometry" />
        </mxCell>
        <mxCell id="7TDlWVTvPXgTqfUWaNOH-32" value="&lt;span style=&quot;font-size: 30px;&quot;&gt;&lt;b style=&quot;&quot;&gt;SW&lt;/b&gt;&lt;/span&gt;" style="text;html=1;align=center;verticalAlign=middle;whiteSpace=wrap;rounded=0;fontColor=#66CC00;" parent="1" vertex="1">
          <mxGeometry x="735" y="80" width="70" height="40" as="geometry" />
        </mxCell>
        <mxCell id="7TDlWVTvPXgTqfUWaNOH-35" style="edgeStyle=orthogonalEdgeStyle;rounded=0;orthogonalLoop=1;jettySize=auto;html=1;exitX=0.5;exitY=1;exitDx=0;exitDy=0;entryX=0.104;entryY=-0.013;entryDx=0;entryDy=0;entryPerimeter=0;startArrow=classic;startFill=1;endArrow=none;" parent="1" source="7TDlWVTvPXgTqfUWaNOH-5" target="7TDlWVTvPXgTqfUWaNOH-6" edge="1">
          <mxGeometry relative="1" as="geometry" />
        </mxCell>
        <mxCell id="7TDlWVTvPXgTqfUWaNOH-36" value="" style="ellipse;whiteSpace=wrap;html=1;aspect=fixed;fillColor=#000000;spacing=2;" parent="1" vertex="1">
          <mxGeometry x="198" y="178" width="4" height="4" as="geometry" />
        </mxCell>
        <mxCell id="1J29-MBzdCk6qC3IPTF7-10" value="" style="shape=parallelogram;perimeter=parallelogramPerimeter;whiteSpace=wrap;html=1;fixedSize=1;strokeColor=none;fillColor=light-dark(#ccebff, #ededed);" vertex="1" parent="1">
          <mxGeometry x="280" y="280" width="30" height="40" as="geometry" />
        </mxCell>
        <mxCell id="1J29-MBzdCk6qC3IPTF7-11" value="" style="shape=parallelogram;perimeter=parallelogramPerimeter;whiteSpace=wrap;html=1;fixedSize=1;strokeColor=none;fillColor=light-dark(#ccebff, #ededed);" vertex="1" parent="1">
          <mxGeometry x="295" y="280" width="30" height="40" as="geometry" />
        </mxCell>
        <mxCell id="1J29-MBzdCk6qC3IPTF7-12" value="" style="shape=parallelogram;perimeter=parallelogramPerimeter;whiteSpace=wrap;html=1;fixedSize=1;strokeColor=none;fillColor=light-dark(#ccebff, #ededed);" vertex="1" parent="1">
          <mxGeometry x="310" y="280" width="30" height="40" as="geometry" />
        </mxCell>
        <mxCell id="7TDlWVTvPXgTqfUWaNOH-11" value="trigger" style="rounded=0;whiteSpace=wrap;html=1;fillColor=none;fontStyle=1;fontSize=14;" parent="1" vertex="1">
          <mxGeometry x="280" y="280" width="60" height="40" as="geometry" />
        </mxCell>
      </root>
    </mxGraphModel>
  </diagram>
</mxfile>
